<?xml version="1.0" standalone="no"?>
<!DOCTYPE svg PUBLIC "-//W3C//DTD SVG 20010904//EN"
 "http://www.w3.org/TR/2001/REC-SVG-20010904/DTD/svg10.dtd">
<svg version="1.0" xmlns="http://www.w3.org/2000/svg"
 width="3400.000000pt" height="3400.000000pt" viewBox="0 0 3400.000000 3400.000000"
 preserveAspectRatio="xMidYMid meet">
<metadata>
Created by potrace 1.11, written by Peter Selinger 2001-2013
</metadata>
<g transform="translate(0.000000,3400.000000) scale(0.100000,-0.100000)"
fill="#000000" stroke="none">
<path d="M1154 20578 c-3 -38 -12 -110 -22 -163 -5 -27 -10 -57 -10 -65 0 -8
-3 -25 -5 -37 -3 -11 -9 -43 -13 -70 -3 -26 -8 -57 -11 -68 -2 -11 -6 -33 -8
-48 -2 -15 -7 -47 -11 -70 -4 -23 -8 -51 -10 -62 -1 -11 -5 -36 -8 -55 -4 -19
-8 -48 -11 -65 -2 -16 -6 -41 -9 -55 -3 -14 -8 -45 -10 -70 -3 -25 -8 -56 -11
-70 -2 -13 -7 -40 -10 -60 -3 -20 -8 -47 -10 -60 -3 -14 -7 -42 -10 -64 -3
-21 -7 -51 -10 -67 -3 -16 -7 -44 -10 -61 -3 -18 -8 -40 -10 -48 -2 -8 -7 -40
-10 -70 -3 -30 -8 -62 -10 -70 -3 -8 -7 -35 -11 -60 -3 -25 -7 -54 -9 -65 -2
-11 -6 -33 -9 -50 -2 -16 -7 -46 -11 -65 -3 -19 -8 -51 -10 -70 -2 -19 -9 -60
-14 -90 -6 -30 -13 -71 -16 -90 -2 -19 -6 -46 -9 -60 -2 -14 -8 -47 -12 -75
-4 -27 -9 -57 -10 -65 -2 -8 -6 -33 -9 -55 -7 -49 -24 -159 -31 -200 -3 -16
-8 -43 -10 -60 -2 -16 -6 -41 -8 -55 -3 -13 -8 -42 -11 -65 -3 -22 -8 -51 -10
-65 -3 -14 -7 -41 -10 -60 -3 -19 -7 -46 -10 -60 -7 -37 -14 -80 -20 -125 -2
-22 -8 -53 -11 -70 -3 -16 -7 -39 -9 -50 -1 -11 -3 -20 -4 -20 -2 0 -4 -16 -5
-35 -2 -19 -8 -64 -14 -100 -6 -36 -13 -81 -16 -100 -3 -19 -8 -46 -11 -60 -3
-14 -7 -43 -10 -65 -2 -22 -6 -49 -8 -60 -4 -19 -14 -77 -23 -140 -2 -16 -7
-41 -9 -55 -3 -14 -8 -40 -10 -58 -12 -80 -14 -95 -20 -120 -3 -15 -7 -43 -9
-62 -2 -19 -9 -64 -15 -100 -6 -36 -13 -82 -17 -104 -3 -21 -8 -48 -10 -60 -2
-11 -7 -40 -10 -62 -2 -23 -7 -53 -10 -65 -2 -13 -7 -42 -10 -64 -3 -22 -12
-76 -20 -120 -7 -44 -16 -98 -19 -120 -4 -22 -10 -65 -15 -95 -5 -30 -12 -73
-15 -95 -2 -22 -7 -51 -10 -65 -3 -14 -8 -41 -11 -60 -6 -43 -6 -46 -39 -250
-14 -91 -28 -180 -31 -199 -3 -18 -7 -43 -10 -54 -2 -12 -6 -39 -9 -62 -4 -22
-13 -78 -21 -125 -8 -47 -17 -101 -20 -120 -6 -54 -14 -102 -19 -130 -4 -25
-14 -87 -20 -125 -10 -67 -16 -104 -20 -125 -3 -13 -7 -42 -10 -65 -3 -22 -8
-53 -11 -68 -3 -16 -7 -38 -9 -50 -7 -53 -18 -124 -21 -142 -3 -11 -7 -36 -9
-55 -7 -47 -14 -90 -20 -120 -5 -25 -13 -77 -20 -127 -2 -15 -6 -44 -10 -63
-3 -19 -8 -46 -10 -60 -4 -25 -5 -33 -32 -200 -8 -52 -16 -104 -18 -115 -2
-11 -6 -37 -10 -57 l-6 -38 520 0 c456 0 521 2 522 15 1 8 2 18 3 23 1 4 6 32
10 62 5 30 10 64 12 75 2 10 6 37 10 60 3 22 7 49 9 60 4 26 14 89 21 140 3
22 7 52 10 68 2 15 6 39 8 55 3 15 7 45 11 67 3 23 7 52 10 65 2 13 9 58 15
100 6 42 13 87 15 100 6 33 15 92 29 190 2 19 10 64 16 100 6 36 12 77 14 92
1 15 5 30 8 33 6 6 1378 8 1385 2 5 -6 12 -42 19 -102 3 -27 9 -65 14 -82 5
-18 7 -41 5 -50 -1 -10 1 -25 5 -33 4 -8 11 -46 15 -85 4 -38 8 -72 10 -75 2
-4 6 -24 9 -46 6 -46 11 -83 32 -219 9 -55 17 -113 19 -128 11 -77 16 -113 20
-127 2 -8 7 -37 10 -65 10 -73 17 -123 39 -255 3 -14 5 -28 5 -32 1 -5 258 -8
572 -8 l571 0 -6 38 c-4 20 -8 53 -10 72 -3 19 -7 51 -11 70 -5 29 -23 138
-40 240 -2 14 -7 45 -10 69 -3 23 -7 46 -9 50 -2 3 -7 29 -10 56 -3 28 -8 61
-10 75 -3 14 -7 41 -10 60 -3 19 -8 46 -11 60 -3 14 -7 45 -10 69 -3 24 -7 46
-9 50 -2 3 -7 33 -10 66 -4 33 -9 67 -11 75 -4 17 -15 81 -20 125 -2 17 -7 41
-10 55 -3 14 -8 48 -11 75 -7 54 -12 80 -14 80 -1 0 -3 14 -5 30 -2 17 -6 46
-9 65 -12 67 -23 136 -31 195 -2 17 -7 41 -10 55 -3 14 -8 45 -11 70 -3 25 -8
54 -10 65 -3 11 -7 36 -10 55 -2 19 -9 58 -14 85 -6 28 -12 66 -14 85 -3 19
-10 67 -16 105 -6 39 -14 88 -16 110 -3 22 -7 47 -10 56 -2 9 -7 34 -9 55 -3
22 -10 64 -15 94 -5 30 -12 72 -16 94 -3 21 -8 48 -10 60 -3 11 -7 39 -9 61
-2 22 -7 51 -10 65 -6 30 -15 83 -20 125 -4 29 -20 126 -30 174 -2 13 -7 49
-11 80 -3 31 -8 58 -9 61 -2 3 -6 26 -10 50 -3 25 -9 59 -12 75 -3 17 -7 44
-8 60 -2 17 -4 30 -5 30 -1 0 -3 14 -5 30 -2 17 -6 41 -9 55 -4 22 -43 258
-51 315 -2 11 -6 38 -10 60 -24 149 -85 529 -90 561 -2 22 -7 50 -10 64 -3 14
-8 39 -10 55 -2 17 -6 46 -9 65 -4 19 -8 49 -11 65 -2 17 -6 41 -9 55 -4 25
-23 146 -32 205 -2 17 -7 44 -11 60 -3 17 -7 41 -9 55 -1 14 -5 36 -8 50 -3
14 -7 45 -10 70 -8 63 -16 111 -22 140 -6 26 -8 35 -20 115 -4 28 -8 57 -10
65 -1 8 -6 35 -10 60 -4 25 -9 52 -10 60 -2 8 -6 33 -9 55 -3 22 -7 51 -9 65
-3 14 -7 43 -11 65 -3 22 -12 78 -20 125 -8 47 -17 101 -19 120 -3 19 -8 46
-10 60 -3 13 -8 42 -11 65 -3 22 -8 51 -10 65 -2 14 -7 43 -10 65 -8 54 -14
95 -20 125 -3 14 -8 43 -10 65 -3 22 -9 60 -15 85 -5 25 -11 63 -14 85 -3 22
-7 49 -10 60 -2 11 -7 43 -11 70 -4 28 -9 59 -10 70 -6 38 -26 160 -31 190 -3
17 -9 50 -13 75 l-6 45 -835 3 -835 2 -1 -22z m792 -1304 c-2 -10 3 -51 11
-93 7 -42 15 -94 18 -116 3 -22 7 -51 10 -65 3 -14 7 -44 10 -67 6 -52 13
-101 25 -173 12 -75 20 -128 26 -170 7 -57 14 -104 19 -130 3 -14 7 -43 10
-65 3 -22 7 -49 9 -61 2 -12 7 -45 11 -75 3 -30 8 -61 10 -69 2 -8 7 -35 10
-60 2 -25 7 -54 9 -65 2 -11 7 -45 11 -75 4 -30 9 -62 10 -70 3 -17 14 -94 29
-200 4 -25 9 -58 13 -75 3 -16 7 -41 9 -55 5 -44 13 -104 19 -140 3 -19 8 -50
10 -69 2 -19 7 -50 10 -70 4 -20 8 -52 11 -71 2 -19 6 -46 9 -60 3 -14 8 -45
11 -70 3 -25 8 -56 10 -70 3 -14 7 -43 10 -65 2 -22 9 -65 14 -95 5 -30 12
-71 14 -90 3 -19 7 -48 10 -65 2 -16 10 -66 16 -110 12 -85 14 -100 24 -155 4
-19 8 -48 10 -65 6 -50 17 -129 22 -155 5 -27 12 -75 20 -130 12 -85 24 -167
28 -190 3 -14 7 -45 10 -70 3 -25 8 -58 11 -75 3 -16 7 -45 10 -62 3 -18 2
-33 -2 -34 -4 -1 -246 -2 -536 -3 -478 -1 -530 1 -538 15 -4 9 -6 18 -4 21 3
2 8 24 11 49 6 45 7 49 20 134 4 28 8 60 8 73 1 12 5 22 9 22 5 0 6 4 3 9 -3
4 -1 37 5 72 6 35 13 79 15 97 1 18 6 42 9 52 3 11 8 39 10 62 3 24 6 54 9 68
2 14 7 48 11 75 3 28 8 61 10 74 2 13 7 45 11 70 3 25 8 57 11 71 2 14 6 42 8
62 2 20 6 45 9 55 3 10 8 38 11 63 6 49 16 116 20 141 2 9 6 40 10 70 3 30 8
61 10 69 2 8 7 40 10 70 4 30 8 57 10 60 2 3 6 30 10 60 3 30 8 66 10 80 2 14
7 43 10 65 2 22 7 51 9 65 6 33 16 98 21 133 2 15 7 47 10 70 3 23 10 67 15
97 5 30 12 80 16 110 3 30 8 58 10 62 3 4 7 31 9 61 3 30 8 65 11 78 2 13 7
40 9 59 3 19 8 53 11 75 8 48 10 67 18 126 4 25 9 57 11 70 4 29 13 87 20 132
6 47 14 98 19 127 2 14 7 47 11 73 4 27 8 56 9 65 2 10 6 38 10 63 4 25 9 57
11 70 12 73 17 107 20 134 2 17 7 50 10 75 4 25 8 56 10 70 2 14 3 28 4 33 1
4 5 7 10 7 5 0 8 -7 7 -16z"/>
<path d="M4503 16996 l0 -3606 567 0 567 0 -1 1453 c-1 798 2 1459 5 1467 6
13 41 15 236 13 212 -1 314 -6 371 -17 67 -14 202 -65 202 -77 0 -5 7 -9 15
-9 34 0 144 -114 187 -195 18 -33 33 -62 34 -65 0 -3 4 -12 7 -20 24 -58 64
-227 65 -280 0 -8 3 -39 7 -69 4 -30 8 -428 10 -885 2 -457 6 -849 9 -871 3
-22 8 -69 11 -105 7 -69 12 -105 15 -105 1 0 3 -13 5 -29 2 -16 16 -69 31
-118 l27 -88 579 0 c318 0 578 2 578 3 0 2 -7 18 -15 35 -16 32 -65 191 -70
227 -1 11 -5 36 -9 55 -7 43 -16 104 -22 145 -6 46 -16 449 -13 545 0 8 0 51
-1 95 -1 44 0 85 1 90 1 6 1 13 1 16 -1 4 -1 67 -1 140 0 74 -1 145 -1 159 -1
14 -2 32 -1 40 0 8 0 98 0 200 -1 102 0 191 0 198 1 6 1 18 2 25 1 23 -11 312
-16 357 -4 43 -20 163 -30 225 -4 27 -12 64 -19 90 -1 6 -6 26 -10 45 -20 88
-80 247 -124 330 -74 136 -193 279 -297 355 -22 17 -42 32 -45 35 -9 9 -64 41
-120 68 -30 15 -57 30 -60 33 -3 3 -11 8 -18 10 -7 2 17 19 53 38 120 61 262
177 350 286 22 28 43 52 48 53 4 2 7 9 7 17 0 7 7 18 15 25 13 11 137 246 133
253 -1 1 11 40 26 87 16 47 29 92 31 100 2 8 10 49 18 90 16 74 20 103 33 210
12 106 14 169 14 585 0 452 -2 514 -25 700 -16 124 -73 349 -112 435 -56 126
-120 237 -180 312 -32 39 -148 153 -183 178 -18 14 -46 36 -62 48 -15 13 -28
20 -28 16 0 -4 -8 0 -17 9 -17 15 -194 107 -206 107 -3 0 -18 5 -34 12 -15 6
-31 12 -35 13 -5 2 -10 4 -13 5 -3 1 -8 3 -12 4 -5 2 -28 8 -53 15 -25 7 -56
15 -69 18 -14 2 -28 6 -33 9 -8 5 -22 8 -79 18 -19 3 -43 8 -55 10 -12 2 -45
7 -75 11 -30 4 -72 10 -94 12 -22 3 -486 7 -1031 10 l-991 4 0 -3605z m1835
2558 c122 -28 201 -71 265 -145 39 -44 94 -149 109 -207 5 -21 11 -46 14 -57
25 -92 30 -221 29 -696 -1 -320 -6 -508 -14 -554 -39 -232 -143 -392 -304
-468 -64 -31 -101 -42 -202 -63 -16 -3 -159 -7 -317 -8 l-288 -3 0 1109 0
1108 325 -1 c230 -1 342 -6 383 -15z"/>
<path d="M8315 20091 c0 -280 3 -512 7 -516 3 -3 269 -6 591 -6 l586 0 0
-2992 c0 -1646 0 -3036 1 -3090 l0 -97 567 2 567 3 1 3085 0 3085 11167 2
11167 2 -2 -2577 -2 -2577 -8960 -2 c-4928 0 -8963 -1 -8967 -2 -5 -1 -8 -230
-8 -511 l0 -510 9485 0 9485 0 0 3605 0 3605 -12843 0 -12842 0 0 -509z"/>
<path d="M15115 18839 c-16 -5 -48 -11 -70 -14 -49 -7 -181 -53 -213 -73 -13
-9 -37 -23 -53 -31 -82 -45 -181 -152 -242 -262 -30 -53 -83 -207 -91 -264 -3
-22 -9 -58 -13 -80 -14 -83 -8 -2290 7 -2290 1 0 3 -11 6 -25 26 -160 114
-334 223 -440 46 -46 170 -133 191 -135 3 -1 31 -11 63 -23 114 -44 195 -56
362 -56 206 0 309 21 450 91 91 45 168 108 239 194 46 55 122 222 141 309 5
24 18 98 20 110 0 9 4 20 8 26 9 15 3 2230 -6 2274 -32 152 -52 212 -100 305
-49 97 -128 187 -215 247 -45 31 -153 87 -180 93 -10 2 -42 11 -72 19 -30 8
-71 18 -90 21 -53 11 -331 13 -365 4z m292 -529 c56 -17 110 -70 139 -136 13
-30 23 -58 22 -62 -1 -4 2 -27 6 -52 10 -51 11 -2077 2 -2130 -13 -76 -19 -96
-37 -132 -48 -94 -120 -132 -254 -133 -160 0 -237 58 -276 208 -17 68 -18 132
-18 1117 0 676 4 1064 10 1099 31 164 126 241 289 237 41 -2 94 -8 117 -16z"/>
<path d="M21057 18834 c-43 -7 -85 -15 -93 -18 -8 -3 -16 -6 -19 -6 -27 -2
-151 -59 -204 -94 -184 -123 -296 -326 -329 -601 -9 -79 -8 -2162 1 -2240 12
-94 18 -129 28 -147 5 -10 7 -18 4 -18 -3 0 2 -17 10 -37 9 -21 16 -40 17 -43
4 -33 65 -151 103 -199 120 -154 284 -245 505 -278 79 -12 385 -6 385 7 0 1
11 4 25 5 27 4 63 12 68 15 1 2 6 3 11 4 5 0 13 4 17 9 4 4 14 7 23 7 33 1
164 78 225 133 93 82 189 237 213 342 8 37 11 50 13 50 2 0 12 48 27 140 3 17
6 324 8 683 l2 652 -21 1 c-11 1 -191 2 -399 3 -371 1 -377 1 -378 -19 -3
-106 -3 -495 1 -496 3 -1 46 -3 95 -3 50 -1 96 -5 102 -9 6 -4 14 -3 17 2 7
10 31 9 42 -2 10 -10 11 -297 1 -297 -5 0 -5 -5 -2 -11 9 -14 12 -149 3 -149
-3 0 -3 -12 1 -27 8 -32 7 -123 -3 -236 -17 -204 -108 -290 -303 -283 -103 3
-150 21 -205 80 -20 21 -37 41 -36 45 1 3 -4 19 -11 35 -29 70 -30 144 -30
1166 0 1101 -1 1092 41 1190 41 95 131 141 266 135 133 -5 200 -45 245 -145
21 -46 24 -58 33 -145 2 -27 7 -60 9 -72 2 -13 -1 -23 -6 -23 -6 0 -7 -5 -3
-11 9 -15 8 -294 0 -308 -4 -6 -2 -11 4 -11 6 0 9 -4 6 -9 -3 -5 2 -10 12 -13
14 -3 448 -2 504 1 15 1 16 24 12 254 -2 138 -5 266 -8 282 -11 78 -17 111
-22 125 -3 8 -8 29 -11 45 -2 17 -9 34 -14 39 -5 6 -9 16 -9 23 0 12 -41 101
-77 168 -22 39 -161 176 -198 195 -16 8 -37 19 -45 26 -19 15 -146 65 -174 68
-11 2 -28 6 -36 9 -64 23 -328 30 -443 11z"/>
<path d="M12090 18725 c-1 -100 -1 -3527 0 -3538 0 -5 43 -7 95 -6 53 1 98 -1
101 -3 3 -3 21 -2 40 2 19 5 37 4 40 -1 3 -5 10 -7 15 -3 6 3 70 5 142 5 l132
-2 0 658 c0 362 1 668 3 680 4 21 7 22 171 23 201 1 236 3 356 25 69 13 229
79 259 107 11 10 23 18 27 18 12 0 111 99 141 140 65 89 128 247 143 360 3 25
8 61 11 80 8 49 9 688 1 785 -14 175 -76 362 -152 454 -46 56 -90 106 -97 109
-4 2 -23 16 -44 33 -39 31 -165 95 -205 103 -13 3 -51 12 -84 21 -72 18 -200
27 -390 26 -77 -1 -147 -1 -155 -1 -51 1 -288 1 -305 1 -11 -1 -71 0 -133 1
l-112 3 0 -80z m962 -456 c28 -10 61 -28 74 -40 28 -26 59 -91 70 -144 4 -22
8 -211 8 -420 0 -366 -1 -382 -22 -442 -33 -95 -99 -150 -189 -158 -60 -6
-322 -7 -330 -2 -6 4 -10 1209 -4 1225 1 1 77 2 171 2 139 -1 179 -5 222 -21z"/>
<path d="M16929 18802 c-12 -2 -14 -250 -12 -1795 1 -985 2 -1799 2 -1807 1
-13 84 -15 694 -13 380 1 718 2 750 2 l58 1 0 98 c0 53 -1 113 -2 132 -1 19
-1 41 -1 48 2 22 1 212 0 226 -1 13 -67 15 -458 14 -252 0 -461 2 -466 5 -5 3
-9 659 -9 1546 0 1021 -3 1541 -10 1542 -52 5 -135 2 -135 -4 0 -5 -5 -5 -11
-1 -6 4 -33 6 -60 5 -27 -1 -56 -1 -64 -1 -66 1 -103 1 -120 1 -11 -1 -47 0
-81 1 -33 2 -67 2 -75 0z"/>
<path d="M19079 18802 c-12 -2 -14 -251 -13 -1802 0 -990 3 -1802 6 -1805 4
-5 229 -8 458 -6 l105 1 0 1799 c0 990 -3 1803 -7 1807 -11 10 -131 11 -145 1
-7 -5 -13 -6 -13 -1 0 5 -47 9 -105 9 -58 0 -105 -4 -105 -8 0 -4 -7 -4 -17 1
-9 6 -29 6 -45 2 -15 -5 -28 -6 -28 -2 0 7 -63 10 -91 4z"/>
<path d="M22889 18803 c-15 -4 -16 -155 -16 -1814 l0 -1810 144 2 c79 0 147
-1 149 -4 3 -2 21 -1 40 3 19 5 37 4 40 -1 3 -5 10 -6 16 -3 6 4 44 6 85 5 85
-2 107 8 93 44 -5 14 -6 27 -1 29 5 3 7 18 4 33 -4 30 -6 92 -3 108 4 23 1
107 -4 112 -3 3 -2 13 3 22 5 9 5 25 1 36 -4 11 -4 34 0 51 4 18 4 38 0 45 -5
7 -5 22 0 33 4 12 4 30 0 41 -4 11 -4 32 0 46 4 15 4 32 0 40 -5 7 -5 20 0 30
5 9 7 19 3 23 -7 7 -10 76 -3 76 7 0 3 87 -5 99 -3 5 -1 12 4 16 5 3 8 15 5
28 -5 22 -7 82 -4 102 4 26 2 107 -4 112 -3 3 -1 13 4 22 5 10 5 23 1 30 -5 7
-5 30 -1 51 4 21 4 44 -1 51 -4 7 -4 20 0 28 5 9 5 25 1 36 -4 11 -4 34 0 51
4 18 4 38 0 45 -5 7 -6 18 -3 25 4 11 38 13 162 10 167 -5 170 -5 216 -27 78
-35 126 -90 158 -179 26 -73 28 -107 32 -500 6 -551 9 -600 42 -713 16 -56 18
-59 45 -55 15 3 28 1 28 -2 0 -4 18 -4 40 0 23 4 40 3 40 -2 0 -5 5 -6 10 -3
12 7 229 9 236 2 3 -3 21 -1 40 3 19 5 37 4 40 -1 3 -5 10 -6 17 -2 6 3 30 6
53 4 l43 -2 -10 33 c-48 153 -49 174 -54 693 -2 231 -6 440 -9 465 -8 76 -38
210 -57 255 -7 17 -13 32 -14 35 -7 22 -33 68 -47 84 -10 11 -18 24 -18 29 0
15 -130 137 -146 137 -3 0 -18 9 -34 20 -15 11 -30 17 -34 13 -3 -3 -6 -1 -6
5 0 6 21 24 48 39 58 33 146 115 175 163 11 19 24 37 27 40 20 17 76 184 87
260 2 19 8 51 12 70 6 29 6 568 0 620 -12 111 -60 263 -106 342 -32 55 -157
188 -176 188 -5 0 -21 8 -35 18 -29 20 -120 60 -149 65 -10 2 -25 7 -33 10
-26 10 -141 28 -207 32 -35 2 -68 7 -73 10 -6 3 -10 1 -10 -5 0 -6 -5 -8 -11
-4 -16 10 -179 11 -179 1 0 -5 -5 -5 -11 -1 -6 4 -34 6 -63 5 -53 -2 -64 -1
-131 2 -22 2 -46 -1 -52 -6 -7 -5 -13 -6 -13 -1 0 5 -47 9 -105 9 -58 0 -105
-4 -105 -8 0 -5 -5 -5 -11 -1 -6 4 -33 6 -60 5 -27 -1 -55 -2 -61 -2 -7 0 -24
2 -38 3 -14 2 -32 2 -41 1z m941 -533 c106 -39 155 -127 166 -298 3 -43 5 -84
4 -92 -2 -87 -2 -106 0 -115 1 -5 2 -12 1 -15 -6 -14 -5 -90 0 -90 4 0 4 -15
0 -33 -5 -18 -5 -41 -1 -52 4 -11 5 -24 2 -29 -3 -5 -7 -34 -9 -65 -6 -107
-58 -210 -126 -251 -68 -42 -148 -53 -369 -51 l-66 1 0 547 c0 301 2 551 5
556 3 4 82 7 176 6 131 -1 181 -6 217 -19z"/>
<path d="M25788 18795 c-7 -5 -14 -23 -15 -40 -1 -16 -16 -113 -33 -215 -17
-102 -33 -200 -35 -217 -12 -79 -15 -99 -20 -123 -3 -14 -8 -45 -11 -70 -3
-25 -7 -52 -9 -60 -1 -8 -6 -35 -10 -60 -4 -25 -9 -54 -11 -65 -2 -11 -7 -40
-10 -65 -3 -25 -10 -64 -15 -87 -5 -24 -9 -46 -8 -50 1 -5 0 -10 -1 -13 -3 -9
-9 -44 -15 -85 -2 -22 -7 -51 -10 -65 -3 -14 -8 -43 -10 -65 -3 -22 -10 -65
-15 -95 -6 -30 -12 -68 -14 -85 -3 -16 -7 -41 -10 -55 -2 -14 -7 -43 -10 -65
-3 -22 -8 -51 -10 -65 -3 -14 -7 -43 -10 -65 -4 -22 -8 -51 -11 -65 -3 -14 -7
-41 -9 -60 -3 -19 -7 -46 -10 -60 -6 -34 -29 -172 -31 -190 -1 -8 -6 -37 -10
-65 -5 -27 -10 -58 -11 -67 -1 -10 -2 -19 -4 -20 -1 -2 -3 -12 -4 -23 -6 -45
-21 -137 -31 -192 -3 -16 -8 -50 -11 -78 -3 -27 -9 -69 -15 -92 -5 -24 -14
-73 -19 -110 -6 -38 -12 -77 -14 -88 -2 -11 -7 -42 -11 -70 -4 -27 -9 -59 -11
-70 -2 -11 -7 -40 -10 -65 -3 -25 -8 -54 -10 -65 -3 -11 -7 -36 -10 -55 -3
-19 -7 -46 -9 -60 -2 -14 -11 -70 -20 -125 -20 -123 -23 -141 -30 -185 -4 -19
-8 -49 -11 -67 l-4 -32 101 1 c55 0 102 -2 105 -5 3 -2 21 -1 40 3 19 5 37 4
40 -1 3 -5 10 -6 16 -3 5 4 57 6 114 5 79 -2 104 1 105 11 0 7 2 20 3 28 2 8
6 39 10 69 4 30 9 64 11 75 3 12 7 39 10 61 2 22 7 51 9 65 3 14 7 43 10 65 9
77 18 141 29 210 l12 70 343 0 c189 0 349 -3 354 -6 6 -4 12 -22 14 -40 6 -53
30 -221 38 -269 3 -14 8 -47 11 -75 4 -27 9 -59 10 -70 5 -26 14 -90 20 -139
3 -21 8 -42 11 -47 3 -6 128 -9 291 -9 l285 1 -6 23 c-3 13 -10 56 -16 97 -6
41 -13 88 -16 104 -3 17 -7 39 -8 50 -2 11 -6 34 -9 50 -3 17 -9 53 -13 80
-10 79 -11 86 -24 155 -7 36 -14 76 -15 90 -11 84 -16 117 -20 136 -3 12 -7
39 -10 60 -5 34 -12 75 -21 124 -2 8 -6 35 -9 60 -8 58 -15 107 -21 134 -2 11
-7 39 -9 61 -3 22 -10 65 -15 95 -8 51 -18 108 -25 155 -2 11 -6 38 -9 60 -3
22 -8 51 -10 65 -4 21 -25 151 -41 250 -2 14 -7 43 -9 65 -3 22 -8 50 -10 61
-6 32 -16 94 -22 134 -2 19 -6 46 -9 60 -2 14 -7 43 -10 65 -3 23 -8 52 -11
65 -10 48 -13 65 -19 115 -4 28 -8 59 -10 70 -2 11 -7 38 -10 60 -3 22 -10 67
-16 100 -6 33 -12 74 -14 90 -2 17 -6 42 -9 56 -3 14 -8 41 -10 60 -3 19 -5
34 -6 34 -1 0 -3 16 -5 35 -2 19 -5 46 -8 60 -3 14 -13 70 -21 125 -23 150
-27 176 -32 199 -2 11 -7 41 -10 66 -3 25 -8 54 -10 65 -11 54 -28 169 -26
178 2 8 -3 9 -113 8 -47 -1 -93 -1 -102 -1 -65 1 -292 1 -308 1 -11 -1 -82 0
-157 1 -81 2 -143 -1 -150 -7z m386 -690 c3 -22 7 -51 10 -65 3 -14 7 -43 10
-65 10 -75 16 -120 26 -175 5 -30 12 -77 15 -105 3 -27 8 -57 10 -65 2 -8 6
-37 10 -65 6 -50 10 -82 20 -140 3 -16 8 -52 11 -80 4 -27 8 -53 10 -57 3 -4
7 -31 9 -61 3 -30 8 -65 10 -78 6 -28 16 -95 20 -129 7 -49 15 -106 21 -140 4
-19 8 -51 9 -70 2 -19 4 -35 5 -35 2 0 8 -34 15 -85 3 -25 8 -56 10 -70 2 -14
6 -45 9 -70 3 -25 8 -56 11 -70 3 -14 8 -47 11 -74 3 -27 6 -54 7 -60 1 -8
-82 -11 -273 -11 -239 0 -275 2 -272 15 7 28 10 45 17 100 4 30 9 64 11 75 4
21 13 78 19 130 5 40 14 103 22 140 3 17 7 41 8 55 2 14 6 41 10 60 3 19 8 49
10 65 5 36 23 157 31 205 3 19 7 49 9 65 3 28 9 58 19 110 2 11 7 45 11 75 4
30 9 63 11 74 2 10 6 37 8 60 3 22 8 52 10 66 5 26 13 80 22 140 11 75 14 96
19 120 3 14 7 43 10 65 4 38 14 103 20 135 2 8 4 26 4 39 1 35 9 23 15 -24z"/>
<path d="M27861 17000 l0 -1810 29 -1 c17 0 120 0 230 0 110 0 224 0 254 0
l55 1 0 703 c0 386 0 722 1 747 l0 45 357 -1 c197 -1 363 2 368 7 8 5 13 476
6 509 -1 3 -163 5 -362 4 -198 0 -362 3 -365 8 -4 6 -7 742 -4 1035 l0 43 467
2 467 3 1 255 0 255 -752 3 -753 2 1 -1810z"/>
<path d="M29868 18804 c-4 -3 -2 -20 4 -37 13 -43 38 -129 43 -147 2 -8 8 -27
14 -42 6 -16 9 -28 6 -28 -2 0 3 -16 11 -35 8 -19 11 -35 8 -35 -4 0 -2 -6 3
-12 9 -11 20 -44 28 -83 2 -6 21 -72 44 -147 22 -75 42 -144 44 -155 2 -10 7
-25 10 -33 6 -14 117 -385 121 -405 4 -19 28 -100 47 -155 17 -52 59 -194 64
-215 1 -5 5 -17 8 -25 6 -16 53 -175 67 -225 4 -16 22 -77 40 -135 17 -58 33
-116 36 -129 3 -13 9 -32 14 -41 5 -9 11 -28 14 -41 7 -36 12 -53 50 -180 l34
-115 0 -593 c0 -326 2 -595 5 -598 4 -4 357 -7 519 -4 l36 1 -1 575 c-1 316 2
575 6 575 4 0 4 7 -1 16 -6 10 1 48 20 112 48 160 80 264 93 312 7 25 25 83
39 130 15 47 28 92 31 101 2 9 20 72 40 140 21 68 38 129 40 134 1 6 5 17 8
25 11 31 77 259 77 269 0 5 5 22 12 38 6 15 12 33 13 38 2 6 11 37 21 70 10
33 19 65 20 72 1 7 11 41 22 75 18 54 120 397 232 778 17 58 35 117 40 132 l8
27 -268 1 c-304 1 -277 8 -299 -85 -7 -27 -11 -52 -11 -55 1 -3 -4 -18 -10
-35 -7 -16 -13 -39 -15 -50 -5 -38 -18 -80 -28 -92 -5 -7 -7 -13 -4 -13 3 0 1
-16 -5 -36 -5 -20 -11 -44 -14 -53 -11 -46 -35 -139 -64 -246 -17 -66 -42
-160 -55 -210 -13 -49 -42 -160 -64 -245 -70 -264 -131 -500 -131 -505 0 -3
-4 -5 -8 -5 -4 0 -14 28 -22 63 -7 34 -15 67 -16 72 -2 6 -11 39 -20 75 -8 36
-18 72 -21 80 -2 8 -5 17 -5 20 0 3 -4 14 -8 26 -5 11 -11 38 -14 60 -4 21
-11 43 -16 48 -6 6 -10 24 -10 41 0 18 -3 35 -7 39 -4 3 -8 12 -9 19 -5 28
-15 68 -43 170 -16 59 -27 107 -24 107 3 0 1 6 -4 13 -9 10 -19 50 -24 92 -1
6 -6 21 -11 35 -5 14 -11 32 -13 40 -3 16 -47 184 -97 370 -17 63 -31 120 -33
125 -6 29 -18 74 -27 103 l-10 32 -287 0 c-158 0 -290 -3 -293 -6z"/>
</g>
</svg>
