<?xml version="1.0" encoding="utf-8"?>
<!-- Generator: Adobe Illustrator 22.1.0, SVG Export Plug-In . SVG Version: 6.00 Build 0)  -->
<svg version="1.1" id="Layer_1" xmlns="http://www.w3.org/2000/svg" xmlns:xlink="http://www.w3.org/1999/xlink" x="0px" y="0px"
	 viewBox="0 0 425.2 90.2" style="enable-background:new 0 0 425.2 90.2;" xml:space="preserve">
<style type="text/css">
	.st0{fill:#FEFEFE;}
	.st1{fill:#EB6020;}
</style>
<g id="Слой_x0020_1">
	<g id="_2290688095472">
		<path class="st0" d="M161.6,22.5h-10.5v45.3h7.1v-17h3.4c7.1,0,10.6-4,10.6-11.2v-5.9C172.2,26.4,168.7,22.5,161.6,22.5z
			 M161.6,28.9c2.3,0,3.5,1,3.5,4.3V40c0,3.2-1.2,4.3-3.5,4.3h-3.4V28.9H161.6z M187.4,32.9c0-3.3,1.4-4.5,3.7-4.5s3.7,1.2,3.7,4.5
			v24.4c0,3.3-1.4,4.5-3.7,4.5s-3.7-1.2-3.7-4.5V32.9z M180.3,56.9c0,7.2,3.8,11.4,10.8,11.4c7,0,10.8-4.1,10.8-11.4V33.3
			c0-7.3-3.8-11.4-10.8-11.4c-7,0-10.8,4.1-10.8,11.4V56.9z M211.5,67.7h18.8v-6.5h-11.7V22.5h-7.1V67.7z M238.4,67.7h7.1V22.5h-7.1
			V67.7z M266.4,49h3.2v8.3c0,3.3-1.4,4.4-3.7,4.4c-2.3,0-3.7-1.2-3.7-4.4V32.9c0-3.3,1.4-4.5,3.7-4.5c2.3,0,3.7,1.2,3.7,4.5v4.8
			h6.7v-4.4c0-7.3-3.6-11.4-10.6-11.4c-7,0-10.6,4.1-10.6,11.4v23.6c0,7.2,3.6,11.4,10.6,11.4c7,0,10.6-4.1,10.6-11.4V42.5h-10V49z
			 M308.1,67.7c-0.7-1.7-0.8-3.3-0.8-5.5v-7c0-4.7-1.2-8.1-4.7-9.6c3.2-1.5,4.6-4.5,4.6-9.2v-3.5c0-7-3.2-10.4-10.5-10.4H286v45.3
			h7.1V49.3h2.5c3.2,0,4.6,1.6,4.6,5.8v7.1c0,3.7,0.3,4.4,0.7,5.6H308.1z M296.5,28.9c2.5,0,3.6,1.4,3.6,4.7V38
			c0,3.6-1.6,4.8-4.3,4.8h-2.8V28.9H296.5z M332.8,22.5h-10.4l-7.3,45.3h6.5l1.2-8.2h8.8l1.2,8.2h7.2L332.8,22.5z M327.2,30.5
			l3.4,22.9h-6.9L327.2,30.5z M355.5,28.9h11.7v-6.5h-18.8v45.3h7.1V49h9.2v-6.5h-9.2V28.9z M382.3,67.7h7.1v-15l9-30.3h-6.8
			l-5.4,20.6l-5.4-20.6h-7.4l9,30.3V67.7z"/>
		<path class="st1" d="M103.9,12.9h14.8v77.3h14.2V12.9h279.4v64.5H187.9v12.9h224.4h8.6h4.3V0h-8.9h-4H103.9V12.9z M35.2,0H14.4
			L0,90.2h13l2.5-16.4h17.4l2.5,16.4h14.3L35.2,0z M24.1,16l6.8,45.6H17.3L24.1,16z M100.3,90.2c-1.4-3.3-1.6-6.6-1.6-10.9V65.3
			c0-9.4-2.3-16.2-9.4-19.2c6.3-2.9,9.3-9,9.3-18.3v-7.1C98.6,6.8,92.3,0,77.6,0H56.2v90.2h14.2V53.5h4.9c6.4,0,9.3,3.1,9.3,11.5
			v14.2c0,7.3,0.5,8.8,1.3,11.1H100.3z M77.2,12.9c5,0,7.2,2.8,7.2,9.3V31c0,7.2-3.2,9.6-8.5,9.6h-5.6V12.9H77.2z"/>
	</g>
</g>
</svg>
