<?xml version="1.0" encoding="iso-8859-1"?>
<!-- Generator: Adobe Illustrator 22.1.0, SVG Export Plug-In . SVG Version: 6.00 Build 0)  -->
<svg version="1.1" id="Layer_1" xmlns="http://www.w3.org/2000/svg" xmlns:xlink="http://www.w3.org/1999/xlink" x="0px" y="0px"
	 viewBox="0 0 36 44.959" style="enable-background:new 0 0 36 44.959;" xml:space="preserve">
<g>
	<linearGradient id="SVGID_1_" gradientUnits="userSpaceOnUse" x1="18" y1="29.6455" x2="18" y2="44.9419">
		<stop  offset="0" style="stop-color:#F79868"/>
		<stop  offset="1" style="stop-color:#F15F63"/>
	</linearGradient>
	<path style="fill:url(#SVGID_1_);" d="M0,36.165c0.125-0.251,0.101-0.533,0.175-0.797c0.199-0.716,0.562-1.329,1.053-1.88
		c0.525-0.59,1.146-1.054,1.826-1.446c0.585-0.337,1.191-0.624,1.828-0.86c0.398-0.147,0.799-0.301,1.2-0.437
		c0.344-0.117,0.706-0.2,1.064-0.285c0.596-0.142,1.191-0.296,1.797-0.386c0.418-0.062,0.824-0.181,1.252-0.2
		c0.469-0.021,0.925-0.163,1.399-0.182c0.26-0.01,0.469,0.017,0.634,0.239c0.112,0.152,0.289,0.248,0.406,0.423
		c-0.134,0.08-0.271,0.106-0.412,0.112c-0.529,0.02-1.042,0.155-1.563,0.228c-0.339,0.048-0.675,0.122-1.001,0.205
		c-0.462,0.116-0.944,0.153-1.388,0.348c-0.221,0.097-0.462,0.151-0.696,0.218c-0.446,0.129-0.869,0.315-1.294,0.498
		c-0.687,0.296-1.326,0.672-1.9,1.155c-0.59,0.496-1.035,1.083-1.127,1.869c-0.071,0.608,0.095,1.168,0.446,1.669
		c0.271,0.387,0.582,0.732,0.954,1.035c0.237,0.194,0.485,0.376,0.724,0.566c0.221,0.176,0.486,0.299,0.74,0.429
		c0.338,0.174,0.679,0.343,1.028,0.493c0.399,0.172,0.808,0.319,1.217,0.467c0.334,0.121,0.671,0.234,1.01,0.33
		c0.433,0.122,0.871,0.231,1.313,0.324c0.395,0.083,0.791,0.164,1.184,0.257c0.294,0.07,0.594,0.1,0.891,0.141
		c0.569,0.077,1.142,0.129,1.714,0.187c0.743,0.075,1.486,0.109,2.23,0.156c0.742,0.046,1.484,0.056,2.224,0.031
		c0.802-0.027,1.604-0.08,2.403-0.156c0.436-0.041,0.875-0.053,1.308-0.131c0.465-0.083,0.932-0.158,1.399-0.223
		c0.333-0.046,0.664-0.101,0.985-0.192c0.504-0.143,1.025-0.21,1.525-0.378c0.241-0.081,0.493-0.154,0.745-0.215
		c0.252-0.061,0.5-0.167,0.746-0.26c0.618-0.235,1.218-0.512,1.807-0.81c0.78-0.394,1.489-0.896,2.073-1.545
		c0.468-0.52,0.827-1.112,0.847-1.849c0.014-0.51-0.127-0.969-0.411-1.394c-0.281-0.422-0.634-0.775-1.044-1.057
		c-0.52-0.358-1.051-0.703-1.655-0.917c-0.269-0.096-0.522-0.235-0.79-0.335c-0.305-0.115-0.619-0.206-0.928-0.312
		c-0.437-0.151-0.892-0.233-1.336-0.359c-0.492-0.139-1.002-0.216-1.507-0.3c-0.486-0.081-0.971-0.176-1.467-0.182
		c-0.076-0.001-0.151-0.057-0.261-0.101c0.215-0.219,0.404-0.432,0.616-0.619c0.1-0.089,0.241-0.124,0.387-0.06
		c0.067,0.03,0.148,0.046,0.221,0.042c0.415-0.022,0.811,0.112,1.219,0.142c0.425,0.031,0.842,0.126,1.256,0.208
		c0.66,0.131,1.325,0.245,1.975,0.434c0.609,0.176,1.221,0.348,1.817,0.561c0.439,0.157,0.875,0.335,1.296,0.545
		c0.794,0.396,1.56,0.845,2.21,1.446c0.553,0.511,1.026,1.105,1.298,1.828c0.128,0.34,0.236,0.685,0.271,1.049
		c0.008,0.079,0.002,0.167,0.068,0.231c0,0.234,0,0.468,0,0.702c-0.073,0.261-0.028,0.534-0.082,0.795
		c-0.13,0.636-0.429,1.201-0.798,1.726c-0.694,0.988-1.599,1.748-2.621,2.378c-0.65,0.4-1.316,0.769-2.02,1.068
		c-0.733,0.312-1.479,0.597-2.242,0.82c-0.473,0.138-0.938,0.307-1.429,0.394c-0.363,0.064-0.709,0.222-1.077,0.273
		c-0.612,0.085-1.214,0.23-1.827,0.31c-0.831,0.109-1.659,0.236-2.5,0.264c-0.738,0.024-1.475,0.055-2.214,0.044
		c-0.847,0-1.693,0-2.539,0c-0.337,0-0.674,0.01-1.011-0.002c-0.696-0.025-1.395-0.039-2.088-0.099
		c-0.641-0.056-1.281-0.156-1.916-0.274c-0.411-0.076-0.828-0.134-1.234-0.224c-0.36-0.08-0.722-0.157-1.08-0.252
		c-0.471-0.124-0.95-0.226-1.41-0.385c-0.81-0.281-1.634-0.523-2.418-0.879c-0.633-0.287-1.259-0.59-1.846-0.957
		c-0.757-0.473-1.478-0.995-2.095-1.654c-0.494-0.527-0.901-1.103-1.206-1.757c-0.192-0.41-0.296-0.836-0.304-1.286
		C0.04,37.053,0.032,36.938,0,36.826C0,36.606,0,36.385,0,36.165z"/>
	<linearGradient id="SVGID_2_" gradientUnits="userSpaceOnUse" x1="17.92" y1="44.9178" x2="17.92" y2="44.9587">
		<stop  offset="0" style="stop-color:#F79868"/>
		<stop  offset="1" style="stop-color:#F15F63"/>
	</linearGradient>
	<path style="fill:url(#SVGID_2_);" d="M16.596,44.959c0.002-0.014,0.002-0.027-0.001-0.041c0.883,0.001,1.766,0.002,2.649,0.003
		c-0.002,0.013-0.004,0.025-0.006,0.038C18.358,44.959,17.477,44.959,16.596,44.959z"/>
	<linearGradient id="SVGID_3_" gradientUnits="userSpaceOnUse" x1="17.9935" y1="0" x2="17.9935" y2="37.2272">
		<stop  offset="0" style="stop-color:#F79868"/>
		<stop  offset="1" style="stop-color:#F15F63"/>
	</linearGradient>
	<path style="fill:url(#SVGID_3_);" d="M29.983,11.774c-0.06-0.809-0.135-1.614-0.309-2.406c-0.118-0.535-0.272-1.063-0.43-1.588
		c-0.106-0.352-0.264-0.687-0.408-1.026c-0.29-0.684-0.677-1.309-1.089-1.922c-0.228-0.341-0.496-0.648-0.76-0.96
		c-0.377-0.445-0.796-0.847-1.249-1.208c-0.683-0.545-1.414-1.014-2.215-1.385c-0.467-0.217-0.945-0.407-1.422-0.59
		c-0.522-0.2-1.077-0.342-1.631-0.424c-0.56-0.082-1.121-0.207-1.694-0.187C18.69,0.082,18.594,0.095,18.537,0
		c-0.413,0-0.826,0-1.239,0c-0.031,0.051-0.075,0.084-0.135,0.079c-0.275-0.02-0.542,0.063-0.811,0.073
		c-0.277,0.01-0.545,0.064-0.81,0.113c-0.745,0.135-1.472,0.352-2.182,0.612c-0.788,0.288-1.524,0.691-2.224,1.151
		c-0.417,0.274-0.801,0.599-1.187,0.92C9.38,3.422,8.91,3.981,8.456,4.559C8.152,4.946,7.898,5.366,7.65,5.789
		C7.355,6.292,7.105,6.82,6.905,7.363C6.731,7.837,6.591,8.325,6.459,8.815c-0.303,1.128-0.417,2.279-0.477,3.439
		c-0.047,0.906,0.082,1.793,0.319,2.665c0.144,0.529,0.281,1.061,0.464,1.577c0.225,0.637,0.491,1.259,0.747,1.885
		c0.181,0.442,0.366,0.883,0.562,1.319c0.238,0.53,0.488,1.055,0.735,1.581c0.18,0.385,0.341,0.781,0.551,1.15
		c0.277,0.487,0.505,0.997,0.769,1.49c0.22,0.41,0.428,0.827,0.648,1.236c0.246,0.457,0.503,0.907,0.752,1.363
		c0.164,0.3,0.305,0.614,0.485,0.904c0.44,0.709,0.817,1.454,1.258,2.163c0.378,0.608,0.713,1.242,1.083,1.854
		c0.141,0.233,0.299,0.462,0.427,0.698c0.17,0.313,0.362,0.611,0.543,0.916c0.427,0.721,0.868,1.433,1.313,2.143
		c0.396,0.632,0.804,1.258,1.21,1.884c0.124,0.192,0.184,0.195,0.295,0.002c0.143-0.247,0.306-0.485,0.466-0.718
		c0.437-0.637,0.816-1.309,1.237-1.955c0.526-0.809,1.009-1.646,1.508-2.473c0.392-0.651,0.784-1.303,1.167-1.96
		c0.248-0.425,0.468-0.867,0.723-1.289c0.538-0.89,1.028-1.807,1.532-2.716c0.407-0.735,0.797-1.479,1.186-2.224
		c0.348-0.668,0.699-1.336,1.02-2.017c0.447-0.947,0.902-1.89,1.304-2.858c0.323-0.777,0.63-1.559,0.921-2.348
		c0.235-0.638,0.432-1.288,0.587-1.948C30.009,13.657,30.054,12.723,29.983,11.774z M18.024,16.495
		c-2.338,0.001-4.155-1.864-4.178-4.109c-0.024-2.323,1.87-4.181,4.05-4.213c2.401-0.036,4.269,1.891,4.233,4.116
		C22.201,14.653,20.253,16.494,18.024,16.495z"/>
</g>
</svg>
