<?xml version="1.0" encoding="iso-8859-1"?>
<!-- Generator: Adobe Illustrator 22.1.0, SVG Export Plug-In . SVG Version: 6.00 Build 0)  -->
<svg version="1.1" id="Layer_1" xmlns="http://www.w3.org/2000/svg" xmlns:xlink="http://www.w3.org/1999/xlink" x="0px" y="0px"
	 viewBox="0 0 872 1089" style="enable-background:new 0 0 872 1089;" xml:space="preserve">
<g>
	<linearGradient id="SVGID_1_" gradientUnits="userSpaceOnUse" x1="437" y1="719.0792" x2="437" y2="1089.5931">
		<stop  offset="0" style="stop-color:#F79868"/>
		<stop  offset="1" style="stop-color:#F15F63"/>
	</linearGradient>
	<path style="fill:url(#SVGID_1_);" d="M1,877c3.027-6.069,2.453-12.917,4.23-19.314c4.817-17.336,13.62-32.187,25.506-45.546
		c12.723-14.299,27.769-25.539,44.228-35.018c14.17-8.162,28.851-15.115,44.267-20.821c9.65-3.572,19.349-7.281,29.064-10.581
		c8.328-2.829,17.11-4.838,25.773-6.9c14.442-3.437,28.844-7.169,43.522-9.341c10.123-1.498,19.969-4.38,30.332-4.851
		c11.354-0.516,22.404-3.951,33.887-4.408c6.294-0.25,11.357,0.407,15.353,5.795c2.725,3.674,7.008,6.013,9.824,10.253
		c-3.254,1.934-6.564,2.574-9.982,2.702c-12.824,0.483-25.228,3.747-37.849,5.53c-8.211,1.16-16.343,2.964-24.248,4.955
		c-11.185,2.816-22.868,3.71-33.628,8.436c-5.36,2.354-11.196,3.65-16.856,5.289c-10.796,3.126-21.058,7.623-31.346,12.053
		c-16.65,7.169-32.112,16.28-46.029,27.979c-14.282,12.006-25.061,26.221-27.295,45.283c-1.725,14.724,2.291,28.288,10.794,40.423
		c6.571,9.377,14.104,17.737,23.098,25.076c5.748,4.69,11.749,9.106,17.546,13.719c5.352,4.258,11.779,7.24,17.931,10.398
		c8.188,4.203,16.45,8.304,24.895,11.951c9.659,4.171,19.576,7.721,29.482,11.306c8.083,2.926,16.244,5.672,24.462,7.99
		c10.486,2.959,21.096,5.601,31.804,7.855c9.561,2.013,19.157,3.964,28.669,6.216c7.13,1.688,14.378,2.432,21.576,3.411
		c13.792,1.874,27.67,3.123,41.522,4.523c17.991,1.819,36,2.649,54.018,3.773c17.967,1.121,35.934,1.367,53.877,0.759
		c19.422-0.658,38.849-1.948,58.196-3.784c10.554-1.002,21.192-1.29,31.68-3.169c11.26-2.017,22.564-3.826,33.895-5.395
		c8.056-1.116,16.071-2.453,23.869-4.661c12.205-3.457,24.821-5.076,36.932-9.155c5.828-1.963,11.946-3.733,18.049-5.218
		c6.095-1.483,12.1-4.034,18.069-6.3c14.965-5.681,29.492-12.407,43.767-19.625c18.888-9.551,36.067-21.707,50.219-37.425
		c11.333-12.587,20.034-26.926,20.51-44.783c0.329-12.358-3.077-23.462-9.948-33.777c-6.808-10.221-15.357-18.766-25.285-25.599
		c-12.588-8.664-25.467-17.025-40.087-22.221c-6.517-2.316-12.655-5.68-19.136-8.115c-7.395-2.778-15.002-4.983-22.475-7.559
		c-10.586-3.648-21.613-5.653-32.371-8.687c-11.906-3.358-24.262-5.222-36.501-7.265c-11.766-1.964-23.511-4.266-35.531-4.407
		c-1.841-0.022-3.667-1.371-6.332-2.439c5.199-5.299,9.781-10.453,14.912-14.988c2.43-2.148,5.839-3.001,9.373-1.455
		c1.634,0.715,3.587,1.121,5.361,1.025c10.055-0.542,19.641,2.724,29.525,3.445c10.295,0.751,20.402,3.052,30.421,5.042
		c15.985,3.174,32.09,5.939,47.851,10.504c14.757,4.274,29.583,8.433,44.004,13.596c10.629,3.805,21.198,8.118,31.397,13.207
		c19.238,9.6,37.781,20.475,53.538,35.024c13.404,12.376,24.852,26.768,31.45,44.273c3.102,8.231,5.711,16.588,6.564,25.419
		c0.184,1.909,0.048,4.051,1.659,5.596c0,5.667,0,11.333,0,17c-1.767,6.311-0.69,12.942-1.978,19.254
		c-3.146,15.413-10.397,29.093-19.328,41.806c-16.811,23.929-38.729,42.345-63.495,57.592c-15.75,9.697-31.888,18.627-48.929,25.874
		c-17.765,7.555-35.815,14.462-54.307,19.871c-11.451,3.349-22.726,7.44-34.608,9.535c-8.795,1.55-17.18,5.372-26.093,6.606
		c-14.829,2.053-29.396,5.568-44.244,7.507c-20.136,2.63-40.195,5.729-60.564,6.383c-17.876,0.574-35.74,1.324-53.637,1.073
		c-20.512,0-41.016,0-61.511,0c-8.154,0-16.325,0.24-24.477-0.05c-16.87-0.601-33.798-0.943-50.575-2.397
		c-15.517-1.345-31.021-3.781-46.408-6.625c-9.961-1.841-20.057-3.242-29.901-5.421c-8.714-1.929-17.498-3.811-26.155-6.099
		c-11.41-3.015-22.999-5.462-34.148-9.326c-19.625-6.801-39.568-12.68-58.57-21.299c-15.337-6.955-30.485-14.289-44.716-23.191
		c-18.328-11.465-35.808-24.113-50.755-40.066c-11.958-12.762-21.823-26.725-29.224-42.557c-4.641-9.929-7.16-20.242-7.365-31.154
		C1.958,898.502,1.77,895.719,1,893C1,887.667,1,882.333,1,877z"/>
	<linearGradient id="SVGID_2_" gradientUnits="userSpaceOnUse" x1="435.063" y1="1089.0095" x2="435.063" y2="1090">
		<stop  offset="0" style="stop-color:#F79868"/>
		<stop  offset="1" style="stop-color:#F15F63"/>
	</linearGradient>
	<path style="fill:url(#SVGID_2_);" d="M403,1090c0.054-0.331,0.048-0.661-0.019-0.99c21.388,0.023,42.775,0.046,64.163,0.069
		c-0.058,0.306-0.106,0.613-0.145,0.922C445.667,1090,424.333,1090,403,1090z"/>
	<linearGradient id="SVGID_3_" gradientUnits="userSpaceOnUse" x1="436.8422" y1="1" x2="436.8422" y2="902.7256">
		<stop  offset="0" style="stop-color:#F79868"/>
		<stop  offset="1" style="stop-color:#F15F63"/>
	</linearGradient>
	<path style="fill:url(#SVGID_3_);" d="M727.26,286.201c-1.459-19.601-3.258-39.104-7.487-58.27
		c-2.859-12.961-6.579-25.753-10.421-38.468c-2.577-8.527-6.4-16.63-9.886-24.85c-7.026-16.563-16.403-31.697-26.369-46.557
		c-5.534-8.252-12.006-15.704-18.409-23.265c-9.129-10.779-19.287-20.512-30.242-29.255c-16.545-13.205-34.253-24.55-53.645-33.55
		c-11.319-5.253-22.897-9.862-34.447-14.287c-12.646-4.844-26.094-8.293-39.499-10.262c-13.568-1.993-27.144-5.006-41.036-4.526
		c-2.113,0.073-4.434,0.4-5.82-1.911c-10,0-20,0-30,0c-0.747,1.225-1.81,2.027-3.269,1.923c-6.669-0.474-13.133,1.519-19.655,1.761
		c-6.7,0.248-13.199,1.559-19.625,2.728c-18.037,3.281-35.659,8.518-52.855,14.814c-19.079,6.986-36.925,16.749-53.862,27.887
		c-10.1,6.642-19.402,14.516-28.745,22.291c-13.797,11.481-25.169,25.023-36.158,39.014c-7.367,9.38-13.522,19.547-19.54,29.805
		c-7.143,12.175-13.196,24.967-18.035,38.138c-4.211,11.463-7.609,23.292-10.794,35.162c-7.332,27.325-10.091,55.207-11.556,83.293
		c-1.144,21.946,1.983,43.436,7.718,64.558c3.478,12.808,6.805,25.704,11.229,38.196c5.46,15.42,11.898,30.498,18.087,45.653
		c4.376,10.717,8.876,21.391,13.617,31.95c5.766,12.841,11.824,25.553,17.796,38.301c4.369,9.326,8.265,18.927,13.343,27.853
		c6.709,11.794,12.232,24.162,18.639,36.09c5.332,9.928,10.357,20.021,15.707,29.94c5.965,11.059,12.188,21.979,18.21,33.008
		c3.97,7.271,7.384,14.876,11.746,21.897c10.667,17.17,19.801,35.213,30.471,52.387c9.146,14.721,17.267,30.076,26.236,44.911
		c3.413,5.645,7.235,11.19,10.342,16.905c4.119,7.577,8.773,14.803,13.151,22.189c10.345,17.455,21.027,34.714,31.803,51.908
		c9.602,15.32,19.481,30.467,29.307,45.646c3.011,4.651,4.447,4.713,7.149,0.05c3.472-5.991,7.412-11.755,11.281-17.391
		c10.59-15.426,19.776-31.702,29.959-47.363c12.742-19.597,24.45-39.869,36.519-59.901c9.503-15.773,18.987-31.561,28.268-47.465
		c6.013-10.304,11.347-21.011,17.512-31.22c13.023-21.567,24.905-43.77,37.097-65.797c9.852-17.799,19.314-35.817,28.717-53.859
		c8.433-16.182,16.929-32.35,24.713-48.846c10.82-22.932,21.836-45.77,31.582-69.218c7.823-18.822,15.25-37.772,22.304-56.883
		c5.7-15.443,10.465-31.198,14.23-47.19C727.895,331.795,728.97,309.17,727.26,286.201z M437.593,400.557
		c-56.626,0.029-100.651-45.146-101.212-99.522c-0.58-56.269,45.29-101.277,98.102-102.059
		c58.168-0.861,103.404,45.81,102.53,99.694C538.759,355.919,491.578,400.529,437.593,400.557z"/>
</g>
</svg>
