<?xml version="1.0" encoding="iso-8859-1"?>
<!-- Generator: Adobe Illustrator 22.1.0, SVG Export Plug-In . SVG Version: 6.00 Build 0)  -->
<svg version="1.1" id="Layer_1" xmlns="http://www.w3.org/2000/svg" xmlns:xlink="http://www.w3.org/1999/xlink" x="0px" y="0px"
	 viewBox="77.684 141 258.634 512" style="enable-background:new 77.684 141 258.634 512;" xml:space="preserve">
<path style="fill:#385C8E;" d="M85.942,413.691h56.123v231.051c0,4.562,3.696,8.258,8.258,8.258h95.159
	c4.562,0,8.258-3.696,8.258-8.258V414.78h64.519c4.195,0,7.725-3.148,8.204-7.315l9.799-85.061c0.269-2.34-0.472-4.684-2.038-6.44
	c-1.567-1.757-3.81-2.763-6.164-2.763h-74.316V259.88c0-16.074,8.654-24.224,25.726-24.224c2.433,0,48.59,0,48.59,0
	c4.562,0,8.258-3.698,8.258-8.258v-78.078c0-4.562-3.696-8.258-8.258-8.258h-66.965c-0.472-0.023-1.521-0.061-3.067-0.061
	c-11.619,0-52.006,2.281-83.909,31.63c-35.348,32.524-30.434,71.465-29.26,78.217v62.352H85.942c-4.562,0-8.258,3.696-8.258,8.258
	v83.975C77.684,409.993,81.38,413.691,85.942,413.691z"/>
</svg>
