<?xml version="1.0" encoding="iso-8859-1"?>
<!-- Generator: Adobe Illustrator 22.1.0, SVG Export Plug-In . SVG Version: 6.00 Build 0)  -->
<svg version="1.1" id="Capa_1" xmlns="http://www.w3.org/2000/svg" xmlns:xlink="http://www.w3.org/1999/xlink" x="0px" y="0px"
	 viewBox="-48.996 141 490.666 512" style="enable-background:new -48.996 141 490.666 512;" xml:space="preserve">
<path d="M196.333,375.667c-41.173,0-74.667-33.493-74.667-74.667s33.493-74.667,74.667-74.667S271,259.827,271,301
	S237.507,375.667,196.333,375.667z M196.333,247.667C166.915,247.667,143,271.581,143,301s23.915,53.333,53.333,53.333
	s53.333-23.915,53.333-53.333S225.752,247.667,196.333,247.667z"/>
<path d="M431,653H-38.333c-3.947,0-7.552-2.176-9.387-5.632c-1.877-3.477-1.664-7.68,0.512-10.965l85.333-128
	c1.984-2.944,5.312-4.736,8.875-4.736h103.467c5.888,0,10.667,4.779,10.667,10.667c0,5.888-4.779,10.667-10.667,10.667H52.717
	l-71.104,106.667h429.461L339.971,525H242.2c-5.888,0-10.667-4.779-10.667-10.667c0-5.888,4.779-10.667,10.667-10.667h103.467
	c3.563,0,6.891,1.792,8.875,4.757l85.333,128c2.197,3.264,2.389,7.488,0.512,10.965C438.552,650.824,434.947,653,431,653z"/>
<path d="M196.333,589c-3.307,0-6.443-1.536-8.448-4.181C181.677,576.755,36.333,386.12,36.333,301c0-88.235,71.765-160,160-160
	s160,71.765,160,160c0,85.12-145.344,275.755-151.552,283.819C202.776,587.464,199.64,589,196.333,589z M196.333,162.333
	c-76.459,0-138.667,62.208-138.667,138.667c0,66.901,107.349,217.131,138.667,259.52C227.651,518.131,335,367.901,335,301
	C335,224.541,272.792,162.333,196.333,162.333z"/>
</svg>
