<?xml version="1.0" encoding="iso-8859-1"?>
<!-- Generator: Adobe Illustrator 22.1.0, SVG Export Plug-In . SVG Version: 6.00 Build 0)  -->
<svg version="1.1" id="Capa_1" xmlns="http://www.w3.org/2000/svg" xmlns:xlink="http://www.w3.org/1999/xlink" x="0px" y="0px"
	 viewBox="0 0 512 512" style="enable-background:new 0 0 512 512;" xml:space="preserve">
<g>
	<g>
		<path style="fill:#FF5F63;" d="M482,316h-18.3l15.8-9.1c6.9-4,11.9-10.5,14-18.2s1-15.8-3-22.8l-68-117.8
			c-4-6.9-10.5-11.9-18.2-14c-7.8-2.1-15.8-1-22.8,3l-15.8,9.1l9.1-15.8c4-6.9,5.1-15,3-22.8c-2.1-7.7-7-14.2-14-18.2L246,21.4
			c-6.9-4-15-5.1-22.8-3c-7.7,2.1-14.2,7-18.2,14l-9,15.9V30c0-16.5-13.5-30-30-30H30C13.5,0,0,13.5,0,30v452c0,16.5,13.5,30,30,30
			h452c16.5,0,30-13.5,30-30V346C512,329.5,498.5,316,482,316z M176,482c0,5.5-4.5,10-10,10H30c-5.5,0-10-4.5-10-10V30
			c0-5.5,4.5-10,10-10h136c5.5,0,10,4.5,10,10V482z M391.5,154.5c2.3-1.3,5-1.7,7.6-1s4.7,2.3,6.1,4.7l68,117.8c1.3,2.3,1.7,5,1,7.6
			s-2.3,4.7-4.7,6.1L387,337.2l-65.8-113.9l24.5-42.4L391.5,154.5z M369.7,347.2l-91.2,52.7l-29.6-51.2l60.8-105.3L369.7,347.2z
			 M196,88.3l26.5-45.8c1.3-2.3,3.5-4,6.1-4.7s5.3-0.3,7.6,1l117.8,68c2.3,1.3,4,3.5,4.7,6.1s0.3,5.3-1,7.6L309.9,203L196,137.3
			V88.3z M196,160.3l103.9,60l-52.7,91.2L196,282V160.3z M196,305.1l41.2,23.8L196,400.3V305.1z M241.3,492h-47
			c1.1-3.1,1.7-6.5,1.7-10v-11.4l45.3-26.2V492z M196,447.5v-7.3c0.1-0.1,0.2-0.2,0.2-0.4l41.1-71.2l23.8,41.2L196,447.5z M492,482
			c0,5.5-4.5,10-10,10H261.3v-57.2c0-0.6-0.1-1.3-0.2-1.9L366.7,372l20-11.5l42.4-24.5H482c5.5,0,10,4.5,10,10V482z"/>
	</g>
</g>
<g>
	<g>
		<path style="fill:#FF9966;" d="M98,376c-21,0-38,17-38,38s17,38,38,38s38-17,38-38S119,376,98,376z M98,432c-9.9,0-18-8.1-18-18
			s8.1-18,18-18s18,8.1,18,18S107.9,432,98,432z"/>
	</g>
</g>
<g>
	<g>
		<path style="fill:#FF9966;" d="M383.7,449.4c-1.9-1.9-4.4-2.9-7.1-2.9c-2.6,0-5.2,1.1-7.1,2.9c-1.9,1.9-2.9,4.4-2.9,7.1
			s1.1,5.2,2.9,7.1c1.9,1.9,4.4,2.9,7.1,2.9c2.6,0,5.2-1.1,7.1-2.9c1.9-1.9,2.9-4.4,2.9-7.1S385.6,451.3,383.7,449.4z"/>
	</g>
</g>
<g>
	<g>
		<path style="fill:#FF9966;" d="M54.3,100.3c-5.5,0-10,4.5-10,10v108.6c0,5.5,4.5,10,10,10s10-4.5,10-10V110.3
			C64.3,104.8,59.9,100.3,54.3,100.3z"/>
	</g>
</g>
<g>
	<g>
		<path style="fill:#FF9966;" d="M54.3,248.9c-5.5,0-10,4.5-10,10v0.2c0,5.5,4.5,10,10,10s10-4.5,10-10v-0.2
			C64.3,253.3,59.9,248.9,54.3,248.9z"/>
	</g>
</g>
<path style="fill:#FF9966;" d="M386.7,360.5v56.7c0,5.5-4.5,10-10,10s-10-4.5-10-10V372L386.7,360.5z"/>
</svg>
