<?xml version="1.0" encoding="iso-8859-1"?>
<!-- Generator: Adobe Illustrator 22.1.0, SVG Export Plug-In . SVG Version: 6.00 Build 0)  -->
<svg version="1.1" id="Capa_1" xmlns="http://www.w3.org/2000/svg" xmlns:xlink="http://www.w3.org/1999/xlink" x="0px" y="0px"
	 viewBox="-25 186.68 464 420.64" style="enable-background:new -25 186.68 464 420.64;" xml:space="preserve">
<path style="fill:#FF5F63;" d="M431,382.12H328.68v-19.76c0-2.89-1.56-5.55-4.08-6.96L215,293.8h-16L89.4,355.32
	c-2.52,1.41-4.08,4.07-4.08,6.96v19.76H-17c-4.42,0-8,3.58-8,8v209.28c0,4.42,3.58,8,8,8h448c4.42,0,8-3.58,8-8v-209.2
	C439,385.7,435.42,382.12,431,382.12z M85.32,591.32H-9v-193.2h94.32V591.32z M199,591.32h-42v-91.36h42V591.32z M257,591.32h-42
	v-91.36h42V591.32z M313,591.32h-40v-99.36c0-4.42-3.58-8-8-8H149c-4.42,0-8,3.58-8,8v99.36h-40v-224l106-59.68L312.68,367
	l0.32,23.04V591.32z M423,591.32h-94.32v-193.2H423V591.32z"/>
<path style="fill:#FF9966;" d="M311,253l6.64-18.24c1.5-4.16-0.65-8.74-4.8-10.24c-0.87-0.32-1.79-0.48-2.72-0.48h-29.76v-11.6
	c0-4.42-3.58-8-8-8H215v-9.76c0-4.42-3.58-8-8-8s-8,3.58-8,8v99.12h16v-31.36h21.68v11.92c0,4.42,3.58,8,8,8h65.36
	c4.42,0,8-3.59,8-8c0-0.93-0.17-1.85-0.48-2.72L311,253z M215,246.44v-26h49.36v26H215z M252.68,266.36v-3.92h19.68
	c4.42,0,8-3.58,8-8l-0.32-0.32v-13.76h18.24L295,250.6c-0.65,1.78-0.65,3.74,0,5.52l3.76,10.24H252.68z"/>
<path style="fill:#FF9966;" d="M173.48,365.72c0.044,18.513,15.087,33.484,33.6,33.44s33.484-15.087,33.44-33.6
	c-0.044-18.481-15.038-33.44-33.52-33.44C188.474,332.164,173.48,347.194,173.48,365.72z M224.6,365.72
	c-0.044,9.676-7.924,17.484-17.6,17.44c-9.676-0.044-17.484-7.924-17.44-17.6c0.044-9.613,7.826-17.396,17.44-17.44
	c9.689,0.044,17.52,7.911,17.52,17.6H224.6z"/>
<path style="fill:#FF9966;" d="M10.28,415.72h16v32h-16V415.72z"/>
<path style="fill:#FF9966;" d="M49.72,415.72h16v32h-16V415.72z"/>
<path style="fill:#FF9966;" d="M125.32,415.72h32v16h-32V415.72z"/>
<path style="fill:#FF9966;" d="M191,415.72h32v16h-32V415.72z"/>
<path style="fill:#FF9966;" d="M256.68,415.72h32v16h-32V415.72z"/>
<path style="fill:#FF9966;" d="M125.32,453h32v16h-32V453z"/>
<path style="fill:#FF9966;" d="M191,453h32v16h-32V453z"/>
<path style="fill:#FF9966;" d="M256.68,453h32v16h-32V453z"/>
<path style="fill:#FF9966;" d="M10.28,478.68h16v32h-16V478.68z"/>
<path style="fill:#FF9966;" d="M49.72,478.68h16v32h-16V478.68z"/>
<path style="fill:#FF9966;" d="M10.28,541.72h16v32h-16V541.72z"/>
<path style="fill:#FF9966;" d="M49.72,541.72h16v32h-16V541.72z"/>
<path style="fill:#FF9966;" d="M348.28,415.72h16v32h-16V415.72z"/>
<path style="fill:#FF9966;" d="M387.72,415.72h16v32h-16V415.72z"/>
<path style="fill:#FF9966;" d="M348.28,478.68h16v32h-16V478.68z"/>
<path style="fill:#FF9966;" d="M387.72,478.68h16v32h-16V478.68z"/>
<path style="fill:#FF9966;" d="M348.28,541.72h16v32h-16V541.72z"/>
<path style="fill:#FF9966;" d="M387.72,541.72h16v32h-16V541.72z"/>
</svg>
