<?xml version="1.0" encoding="iso-8859-1"?>
<!-- Generator: Adobe Illustrator 22.1.0, SVG Export Plug-In . SVG Version: 6.00 Build 0)  -->
<svg version="1.1" id="Capa_1" xmlns="http://www.w3.org/2000/svg" xmlns:xlink="http://www.w3.org/1999/xlink" x="0px" y="0px"
	 viewBox="-49 201.5 512 391" style="enable-background:new -49 201.5 512 391;" xml:space="preserve">
<path style="fill:#EDEDED;" d="M443,432.5c11.046,0,20-8.954,20-20v-131c0-44.112-35.888-80-80-80H31c-44.112,0-80,35.888-80,80v231
	c0,44.112,35.888,80,80,80h352c44.112,0,80-35.888,80-80c0-11.046-8.954-20-20-20s-20,8.954-20,20c0,22.056-17.944,40-40,40H31
	c-22.056,0-40-17.944-40-40V285.738l173.755,108.045c13.029,8.101,27.637,12.152,42.245,12.152s29.216-4.051,42.245-12.152
	L423,285.738V412.5C423,423.546,431.954,432.5,443,432.5z M228.122,359.814c-13.028,8.101-29.216,8.102-42.244,0L7.689,249.012
	c6.568-4.726,14.62-7.512,23.311-7.512h352c8.691,0,16.743,2.787,23.311,7.513L228.122,359.814z"/>
</svg>
