<?xml version="1.0" encoding="utf-8"?>
<!-- Generator: Adobe Illustrator 22.1.0, SVG Export Plug-In . SVG Version: 6.00 Build 0)  -->
<svg version="1.1" id="Layer_1" xmlns="http://www.w3.org/2000/svg" xmlns:xlink="http://www.w3.org/1999/xlink" x="0px" y="0px"
	 viewBox="0 0 511 425.9" style="enable-background:new 0 0 511 425.9;" xml:space="preserve">
<style type="text/css">
	.st0{fill:#FF5F63;}
	.st1{fill:#FF9966;}
</style>
<path class="st0" d="M505.3,18.3C498.5,7.3,486.4,0,472.6,0H38.4C24.6,0,12.5,7.3,5.7,18.3C2.1,24.1,0,31,0,38.4v107.1
	c0,0.4,0,0.8,0,1.1c0,0,0,0.1,0,0.1c0.6,9.7,8.8,17.5,18.7,17.5h12.1v215.1c-13.7,2-24.3,13.8-24.3,28.1v9.1c0,5.2,4.3,9.5,9.5,9.5
	h71.5c5.2,0,9.5-4.3,9.5-9.5v-9.1c0-14.3-10.6-26.1-24.3-28.1V164.2h30.8v-51.5h304.2v51.5h30.8v215.1c-13.7,2-24.3,13.8-24.3,28
	v9.1c0,5.2,4.3,9.5,9.5,9.5H495c5.2,0,9.5-4.3,9.5-9.5v-9.1c0-14.2-10.6-26.1-24.3-28V164.2h12.1c10.3,0,18.7-8.4,18.7-18.7V38.4
	C511,31,508.9,24.1,505.3,18.3z M82,407.3v3.6H21.5v-3.6c0-7.4,6-13.4,13.4-13.4h33.8C76,393.9,82,399.9,82,407.3z M45.8,379V164.2
	h11.9V379H45.8z M489.5,407.3v3.6H429v-3.6c0-7.4,6-13.4,13.4-13.4h33.8C483.5,393.9,489.5,399.9,489.5,407.3z M453.3,379V164.2
	h11.9V379H453.3z M496,145.5c0,2-1.7,3.7-3.7,3.7h-69.8V70.3c0-4.1-3.3-7.5-7.5-7.5c-4.1,0-7.5,3.4-7.5,7.5v27.4H103.4V70.3
	c0-4.1-3.3-7.5-7.5-7.5c-4.1,0-7.5,3.4-7.5,7.5v78.9H18.7c-2,0-3.7-1.7-3.7-3.7V38.4c0-4.5,1.3-8.7,3.5-12.3
	C22.6,19.5,30,15,38.4,15h50.1v25.4c0,4.1,3.3,7.5,7.5,7.5c4.1,0,7.5-3.4,7.5-7.5V15h304.2v25.4c0,4.1,3.3,7.5,7.5,7.5
	c4.1,0,7.5-3.4,7.5-7.5V15h50.1c8.4,0,15.8,4.5,20,11.2c2.2,3.6,3.5,7.8,3.5,12.3V145.5z"/>
<path class="st1" d="M407.6,164.2V226h-51c-4.1,0-7.5,3.4-7.5,7.5v51H173.5c-4.1,0-7.5,3.4-7.5,7.5c0,4.1,3.4,7.5,7.5,7.5
	c194.4,0,185.1,1.1,188.4-2.2c60.6-60.6,60.6-58.7,60.7-63.8v-69.3H407.6z M364.1,273.9V241H397L364.1,273.9z"/>
<path class="st1" d="M151.1,291.9c0,4.1-3.4,7.5-7.5,7.5H95.9c-4.1,0-7.5-3.4-7.5-7.5V164.2h15v120.3h40.2
	C147.7,284.5,151.1,287.8,151.1,291.9z"/>
<path class="st1" d="M147.3,34.2c-11.7,0-21.2,9.5-21.2,21.2c0,11.7,9.5,21.2,21.2,21.2c11.7,0,21.2-9.5,21.2-21.2
	C168.4,43.7,158.9,34.2,147.3,34.2z M147.3,61.5c-3.4,0-6.2-2.8-6.2-6.2c0-3.4,2.8-6.2,6.2-6.2c3.4,0,6.2,2.8,6.2,6.2
	C153.4,58.8,150.7,61.5,147.3,61.5z"/>
<path class="st1" d="M229.1,47.9h-38.4c-4.1,0-7.5,3.4-7.5,7.5c0,4.1,3.4,7.5,7.5,7.5h38.4c4.1,0,7.5-3.4,7.5-7.5
	C236.5,51.2,233.2,47.9,229.1,47.9z"/>
<path class="st1" d="M223.6,141.7h-43.7c-4.1,0-7.5,3.4-7.5,7.5v90.3c0,4.1,3.4,7.5,7.5,7.5h109.8c4.1,0,7.5-3.4,7.5-7.5v-46.6
	c0-4.1-3.4-7.5-7.5-7.5h-11.5c-2,0-3.8,0.8-5.2,2.1l-15.1,14.8c-3,2.9-3,7.6-0.1,10.6c2.9,2.9,7.6,3,10.6,0.1l12.9-12.6h1V232h-51.1
	v-31.7h17c4.1,0,7.5-3.4,7.5-7.5c0-4.1-3.4-7.5-7.5-7.5h-17v-36.1C231.1,145.1,227.7,141.7,223.6,141.7z M216.1,185.4h-17.6
	c-4.1,0-7.5,3.3-7.5,7.5c0,4.1,3.4,7.5,7.5,7.5h17.6V232h-28.7v-75.3h28.7V185.4z"/>
<path class="st1" d="M316,246.9c-4.1,0-7.5,3.4-7.5,7.5c0,4.1,3.4,7.5,7.5,7.5h15.1c4.1,0,7.5-3.3,7.5-7.5c0-4.1-3.3-7.5-7.5-7.5
	H331v-96.7h0.1c4.1,0,7.5-3.4,7.5-7.5c0-4.1-3.3-7.5-7.5-7.5H316c-4.1,0-7.5,3.4-7.5,7.5c0,4.1,3.4,7.5,7.5,7.5h0.1L316,246.9
	L316,246.9z"/>
</svg>
