<?xml version="1.0" encoding="iso-8859-1"?>
<!-- Generator: Adobe Illustrator 22.1.0, SVG Export Plug-In . SVG Version: 6.00 Build 0)  -->
<svg version="1.1" id="Capa_1" xmlns="http://www.w3.org/2000/svg" xmlns:xlink="http://www.w3.org/1999/xlink" x="0px" y="0px"
	 viewBox="0 0 422.7 422.7" style="enable-background:new 0 0 422.7 422.7;" xml:space="preserve">
<path style="fill:#FF5F63;" d="M333.1,311.1c3.4-27.9,5.1-55.9,5-84l-15.9,6.4c-0.3,24.1-1.8,48.1-4.6,72c-15-5-30.3-9-45.8-12.1
	V282c0-0.4-0.1-0.9-0.2-1.3l0.1-0.3c5.3-6.5,9.7-13.7,13-21.4c2-4.7,3.6-9.6,4.8-14.6l-19.4,8c-14.1,33-48.5,45.7-58.5,48.7
	c-43.8-24-66.6-48-65.7-71.4c1.4-37.3,61.1-64,67.9-67.2c14.1-5.7,26.7-14.7,36.5-26.4c20.6,37.5,28.8,69.8,24.9,96.6l17.2-7.1
	c1.3-30.1-9.6-65.4-33-105.4c5.5-15.5,5.5-32.5,0-48c-1-3.8-2-8-2.6-11.1c9.9,5.3,18.8,12.3,26.2,20.8
	c24.6,28.1,37.8,73.1,39.3,134.4l15.3-9c-2.8-60.7-17-106.2-42.8-135.6c-11.5-13.2-26-23.4-42.3-29.8h-0.7
	c-14.7-5.6-30.2-8.5-45.9-8.6c-29.3-1.2-57.5,10.9-76.9,33C98.4,101,87.8,157.2,85,207l-0.3,19.9c-0.5,28.2,1,56.4,4.6,84.4
	c-43.5,17-90.6,47.4-89.3,98.2c0,4.4,3.6,8,8,8h406.6c4.4,0,8-3.6,8-8C424,358.4,376.3,328,333.1,311.1z M100.6,224.7
	c0.5-1.6,0.5-3.2,0.1-4.8l0.3-0.2c1.5-50.1,10.4-109.1,40-143c16.2-18.7,40-28.8,64.6-27.5c11.8,0.1,23.5,1.9,34.8,5.4
	c-0.3,7.5,0.6,15,2.9,22.2c3.4,13.3,7,27,0,40c0,0,0,0,0,0.6c-0.2,0.3-0.3,0.5-0.4,0.8c0,0.7-6.1,17.2-35.4,29.9
	c-12.6,5.4-75.8,35.1-77.5,81.2c-0.6,16.6,6.8,32.9,22.1,48.7c-0.6,1.1-1,2.4-1,3.7V293c-15.8,3.1-31.3,7.2-46.6,12.3
	C101.4,278.5,100.1,251.6,100.6,224.7z M203.3,401.3h-187c6.3-60.1,104-85.2,134.6-91.7v14c0,18.2,22.1,32,52.5,34.3v43.4H203.3z
	 M166.8,323.7v-32c12.5,9.6,25.9,18.1,40,25.4c1.2,0.6,2.5,1,3.8,1h1.8c15.8-4.2,30.6-11.6,43.5-21.8v27.6
	c0,7.6-17.4,18.6-44.5,18.6S166.8,331.1,166.8,323.7z M219.3,401.3V358c30.4-2.1,52.5-16,52.5-34.3v-14
	c30.8,6.4,128,31.4,134.6,91.7L219.3,401.3z"/>
<path style="fill:#FF9966;" d="M358.5,134.7c-0.6-1.7-1.7-3.2-3.2-4.2l-5.4-3.6c0.9-29.9-9.4-59-28.8-81.8
	c-24-26.6-60.7-40-109.4-40s-85.5,13.8-109.4,40C82.9,67.9,72.6,97,73.5,126.9l-5.4,3.6c-1.5,1-2.6,2.5-3.2,4.2
	c-18.6,57.2,2.2,81.8,19.8,92.2L85,207c-15.9-16-12.9-42.8-6-65l6.8-4.6c2.5-1.6,3.8-4.5,3.5-7.4c-1.5-27,7.3-53.7,24.6-74.5
	c20.7-22.7,53.5-34.5,97.4-34.6c43.8-0.2,76.6,11.9,97.4,34.9c17.3,20.8,26.2,47.4,24.6,74.5c-0.3,2.9,1.1,5.8,3.5,7.4l6.9,4.6
	c8,26.6,7.6,46.9-1.8,60.2c-1.3,1.8-2.8,3.5-4.4,5l-15.3,9c-4.4,1.6-8.9,2.5-13.5,2.9c-1,0-2,0.3-2.9,0.6l-13.6,5.8l-17.2,7.1
	L248.7,244c-4.7-6.8-12.5-10.9-20.7-10.8l0.1-0.3c-13.8-0.1-25,11-25.1,24.8s11,25,24.8,25.1c13.1,0.1,24-10,25-23l17.2-7.3l19.4-8
	l21.2-9c3.9-0.4,7.8-1.1,11.6-2.1l15.9-6.4c6.8-3.8,12.7-9,17.2-15.3C368.2,193.6,369.2,167.7,358.5,134.7z M228,266.8c-5,0-9-4-9-9
	s4-9,9-9c4.9,0.1,8.8,4.1,8.8,8.9v0.3l0.2-0.3C237,262.8,233,266.8,228,266.8z"/>
</svg>
