<?xml version="1.0" encoding="utf-8"?>
<!-- Generator: Adobe Illustrator 22.1.0, SVG Export Plug-In . SVG Version: 6.00 Build 0)  -->
<svg version="1.1" id="Capa_1" xmlns="http://www.w3.org/2000/svg" xmlns:xlink="http://www.w3.org/1999/xlink" x="0px" y="0px"
	 viewBox="0 0 512 512" style="enable-background:new 0 0 512 512;" xml:space="preserve">
<style type="text/css">
	.st0{fill:#FF5F63;}
	.st1{fill:#FF9966;}
</style>
<g>
	<g>
		<path class="st0" d="M504.7,222.4l-0.1-0.3c-0.8-3.3-3.3-6-6.6-7.1c-1.2-0.4-30.6-9.9-72.4-7c-38.6,2.7-95.5,17-148.1,69.5
			c-52.6,52.6-66.8,109.6-69.5,148.1c-2.9,41.9,6.6,71.2,7,72.4c1,3,3.3,5.3,6.3,6.3c1.1,0.4,23.3,7.6,56.4,7.6
			c5.1,0,10.4-0.2,16-0.6c38.6-2.7,95.5-17,148.1-69.5C534.9,348.9,510.5,242.8,504.7,222.4z M402,231.2c7.9-1.5,16-2.6,24.2-3.2
			c20.3-1.5,37.4,0.3,49.1,2.2c-0.5,0.3-1,0.7-1.4,1.2L402,303.3V231.2z M382,236.2v87.1l-67,67V272.1c0-0.3,0-0.6,0-1
			C335.7,255.1,358.1,243.4,382,236.2z M227.9,427c3.6-51.1,25-96.7,63.7-135.4c1.1-1.1,2.2-2.2,3.3-3.3v121.4c0,0.1,0,0.3,0,0.4
			l-64.8,64.8C228.2,463.6,226.5,446.9,227.9,427z M293.2,491.4c-20.1,1.5-37.2-0.2-48.9-2.2l31.2-31.2h0.1H391
			C361.4,477.6,328.6,488.8,293.2,491.4z M427.7,427.8c-3.5,3.5-7.2,7-10.8,10.2H295.6l58-58h111.1
			C455.5,395.9,443.5,412,427.7,427.8z M474.9,359.9H373.6L488,245.6c0.4-0.4,0.8-0.9,1.1-1.4C493.3,268.4,495.9,312.2,474.9,359.9z
			"/>
	</g>
</g>
<g>
	<g>
		<path class="st0" d="M234.5,277.5C181.9,225,124.9,210.7,86.4,208c-41.9-2.9-71.2,6.6-72.4,7c-3.3,1.1-5.8,3.8-6.6,7.1l-0.1,0.3
			c-5.8,20.3-30.2,126.5,62.8,219.5c29.5,29.5,63.3,50,100.4,61c0.9,0.3,1.9,0.4,2.8,0.4c4.3,0,8.3-2.8,9.6-7.2
			c1.6-5.3-1.5-10.9-6.8-12.4c-33.9-10-64.8-28.8-92-55.9c-23.6-23.6-39-48.1-48.8-71.6h99.1l48.3,48.3c2,2,4.5,2.9,7.1,2.9
			s5.1-1,7.1-2.9c3.9-3.9,3.9-10.2,0-14.1l-11-11V263.1c12,8.2,23.4,17.7,34.4,28.6c3.9,3.9,10.2,3.9,14.1,0
			S238.4,281.5,234.5,277.5z M85,228c4.4,0.3,8.7,0.8,13,1.3v62l-60.4-60.4c-0.2-0.2-0.5-0.4-0.7-0.6C48.4,228.3,65.1,226.6,85,228z
			 M28.4,336.2L28.4,336.2c-11.3-38.1-9-71.7-5.5-91.8c0.2,0.2,0.4,0.4,0.6,0.6l91.2,91.2H28.4L28.4,336.2z M166,359.3l-48-48V233
			c16.7,3.9,32.7,10,48,18.1V359.3z"/>
	</g>
</g>
<g>
	<g>
		<path class="st1" d="M188.9,449.6c-19.3-5.7-37.7-14.8-54.5-27.1c-4.5-3.3-10.7-2.3-14,2.2s-2.3,10.7,2.2,14
			c18.7,13.7,39.1,23.8,60.7,30.1c0.9,0.3,1.9,0.4,2.8,0.4c4.3,0,8.3-2.8,9.6-7.2C197.2,456.7,194.2,451.2,188.9,449.6z"/>
	</g>
</g>
<g>
	<g>
		<path class="st1" d="M110.3,401.8L110.3,401.8c-3.9-3.9-10.3-3.9-14.2,0c-3.9,3.9-3.9,10.3,0,14.2c2,2,4.5,2.9,7.1,2.9
			s5.1-1,7.1-2.9C114.2,412.1,114.2,405.7,110.3,401.8z"/>
	</g>
</g>
<g>
	<g>
		<path class="st1" d="M128.2,127H74V83.5h37.3c5.5,0,10-4.5,10-10s-4.5-10-10-10H74V20h54.1c5.5,0,10-4.5,10-10s-4.5-10-10-10H64
			c-5.5,0-10,4.5-10,10v127c0,5.5,4.5,10,10,10h64.1c5.5,0,10-4.5,10-10C138.2,131.5,133.7,127,128.2,127z"/>
	</g>
</g>
<g>
	<g>
		<path class="st1" d="M384,0c-40.5,0-73.5,33-73.5,73.5s33,73.5,73.5,73.5s73.5-33,73.5-73.5S424.5,0,384,0z M384,127
			c-29.5,0-53.5-24-53.5-53.5S354.5,20,384,20s53.5,24,53.5,53.5S413.5,127,384,127z"/>
	</g>
</g>
<g>
	<g>
		<path class="st1" d="M271.5,111.3c-20.9,20.9-54.8,20.9-75.7,0s-20.9-54.8,0-75.7s54.8-20.9,75.7,0c3.9,3.9,10.2,3.9,14.1,0
			s3.9-10.2,0-14.1c-28.7-28.7-75.3-28.7-103.9,0c-28.7,28.7-28.7,75.3,0,103.9c14.3,14.3,33.1,21.5,52,21.5s37.6-7.2,52-21.5
			c3.9-3.9,3.9-10.2,0-14.1C281.8,107.4,275.4,107.4,271.5,111.3z"/>
	</g>
</g>
<g>
	<g>
		<path class="st1" d="M256.1,170.4c-5.5,0-10,4.5-10,10v28.3c0,5.5,4.5,10,10,10s10-4.5,10-10v-28.3
			C266.1,174.8,261.6,170.4,256.1,170.4z"/>
	</g>
</g>
<g>
	<g>
		<path class="st1" d="M314.4,197.9c-3.9-3.9-10.2-3.9-14.1,0l-20.4,20.4c-3.9,3.9-3.9,10.2,0,14.1c2,2,4.5,2.9,7.1,2.9
			s5.1-1,7.1-2.9l20.4-20.4C318.3,208.1,318.3,201.8,314.4,197.9z"/>
	</g>
</g>
<g>
	<g>
		<path class="st1" d="M232.1,218l-20.4-20.4c-3.9-3.9-10.2-3.9-14.1,0c-3.9,3.9-3.9,10.2,0,14.1l20.4,20.4c2,2,4.5,2.9,7.1,2.9
			s5.1-1,7.1-2.9C236,228.2,236,221.9,232.1,218z"/>
	</g>
</g>
</svg>
